#tb 0: 1/25
#media_type 0: video
#codec_id 0: rawvideo
#dimensions 0: 720x576
#sar 0: 16/15
0,          9,          9,        1,  2488320, 0xd547cd9d
0,         10,         10,        1,  2488320, 0x4391d4a5
0,         11,         11,        1,  2488320, 0x0bbdb3a2
0,         12,         12,        1,  2488320, 0xa8404800
0,         13,         13,        1,  2488320, 0xa8ab3703
0,         14,         14,        1,  2488320, 0x1e60263e
0,         15,         15,        1,  2488320, 0x2c0b4f0e
0,         16,         16,        1,  2488320, 0xfb5d4f00
0,         17,         17,        1,  2488320, 0xfe787f2f
0,         18,         18,        1,  2488320, 0x130d3ca9
0,         19,         19,        1,  2488320, 0xb6ae35da
0,         20,         20,        1,  2488320, 0xb6a5d5fc
0,         21,         21,        1,  2488320, 0x300ea629
0,         22,         22,        1,  2488320, 0x06d099ed
0,         23,         23,        1,  2488320, 0xa83b7cbb
0,         24,         24,        1,  2488320, 0x076e089d
0,         25,         25,        1,  2488320, 0x46b10d36
0,         26,         26,        1,  2488320, 0xfa93a0f7
0,         27,         27,        1,  2488320, 0xd85c71a8
0,         28,         28,        1,  2488320, 0xb3e5bd8e
0,         29,         29,        1,  2488320, 0xd45cb026
0,         30,         30,        1,  2488320, 0xe411e804
0,         31,         31,        1,  2488320, 0x3585652f
0,         32,         32,        1,  2488320, 0x83f60a43
0,         33,         33,        1,  2488320, 0xf40719a0
0,         34,         34,        1,  2488320, 0x19127303
0,         35,         35,        1,  2488320, 0x51f36b06
0,         36,         36,        1,  2488320, 0x0bd6898e
0,         37,         37,        1,  2488320, 0xa0d2520e
0,         38,         38,        1,  2488320, 0x993db28f
